# xmcd
#
# Track frame offsets: 
#        150
#        11297
#        22917
#        34687
#        47612
#        68162
#        80052
#        102067
#        115352
#        135512
#        148222
#        168412
#        185052
#        203650
#        215542
#
# Disc length: 3059 seconds
#
# Revision: 5
# Processed by: cddbd v1.5.1PL0 Copyright (c) Steve Scherf et al.
# Submitted via: ExactAudioCopy v0.95a5
#
DISCID=cc0bf10f
DTITLE=Various Artist - Folk #2
DYEAR=1900
DGENRE=Folk
TTITLE0=One day when we were young
TTITLE1=I'll have to say I love you in a song
TTITLE2=When a child is born
TTITLE3=Handy man
TTITLE4=Danny's song
TTITLE5=Joe Hill
TTITLE6=Blue balloon
TTITLE7=Take me home, country road
TTITLE8=My sweet lady
TTITLE9=Interlude
TTITLE10=Rocky mountain high
TTITLE11=Operator
TTITLE12=Peaceful easy feeling
TTITLE13=One less set of footstep
TTITLE14=Blowing in the wind
EXTD=
EXTT0=ssssssssssssssssssssss
EXTT1=
EXTT2=kkk
EXTT3=
EXTT4=
EXTT5=
EXTT6=
EXTT7=
EXTT8=
EXTT9=
EXTT10=
EXTT11=
EXTT12=
EXTT13=
EXTT14=
PLAYORDER=
